G04*
G04 #@! TF.GenerationSoftware,Altium Limited,Altium Designer,24.8.2 (39)*
G04*
G04 Layer_Color=255*
%FSLAX44Y44*%
%MOMM*%
G71*
G04*
G04 #@! TF.SameCoordinates,A64931F2-2A1F-4A1D-9477-064251C997AC*
G04*
G04*
G04 #@! TF.FilePolarity,Positive*
G04*
G01*
G75*
%ADD25C,1.7780*%
%ADD26C,2.5400*%
%ADD27C,1.0000*%
%ADD28C,2.0320*%
%ADD29R,1.7780X1.7780*%
%ADD30C,1.6510*%
%ADD31R,6.0000X6.0000*%
%ADD32C,6.0000*%
D25*
X3271180Y1782475D02*
D03*
X3356793Y1854313D02*
D03*
X4203260Y1254710D02*
D03*
Y1280110D02*
D03*
X4148260D02*
D03*
Y1254710D02*
D03*
X3972560Y1753870D02*
D03*
X3947160D02*
D03*
Y1808870D02*
D03*
X3972560D02*
D03*
X3870960Y1085850D02*
D03*
X3845560D02*
D03*
X3820160D02*
D03*
X3794760D02*
D03*
X3769360D02*
D03*
X3743960D02*
D03*
X3718560D02*
D03*
X3693160D02*
D03*
X3667760D02*
D03*
X3642360D02*
D03*
X3616960D02*
D03*
X3591560D02*
D03*
X3566160D02*
D03*
X3540760D02*
D03*
X3515360D02*
D03*
Y1238250D02*
D03*
X3540760D02*
D03*
X3566160D02*
D03*
X3591560D02*
D03*
X3616960D02*
D03*
X3642360D02*
D03*
X3667760D02*
D03*
X3693160D02*
D03*
X3718560D02*
D03*
X3743960D02*
D03*
X3769360D02*
D03*
X3794760D02*
D03*
X3820160D02*
D03*
X3845560D02*
D03*
X3409950Y593090D02*
D03*
X3384550D02*
D03*
Y648090D02*
D03*
X3409950D02*
D03*
X3329990Y689220D02*
D03*
X3304590D02*
D03*
Y744220D02*
D03*
X3329990D02*
D03*
X3175000Y899160D02*
D03*
Y787400D02*
D03*
X3249980Y841620D02*
D03*
X3224580D02*
D03*
Y896620D02*
D03*
X3249980D02*
D03*
X3261360Y937260D02*
D03*
X3149600D02*
D03*
X4031673Y840390D02*
D03*
X4006273D02*
D03*
X3955473D02*
D03*
X3980873D02*
D03*
X3930073D02*
D03*
X3650673D02*
D03*
X3904673D02*
D03*
X3879273D02*
D03*
X3853873D02*
D03*
X3828473D02*
D03*
X3803073D02*
D03*
X3777673D02*
D03*
X3752273D02*
D03*
X3726873D02*
D03*
X3701473D02*
D03*
X3676073D02*
D03*
X3904673Y992791D02*
D03*
X3853873D02*
D03*
X3879273D02*
D03*
X3828473D02*
D03*
X3803073D02*
D03*
X3777673D02*
D03*
X3752273D02*
D03*
X4048810Y690050D02*
D03*
X4023410D02*
D03*
Y745050D02*
D03*
X4048810D02*
D03*
X4093210Y1184910D02*
D03*
Y1073150D02*
D03*
X4235450Y905510D02*
D03*
Y1017270D02*
D03*
X3114040Y1499870D02*
D03*
Y1388110D02*
D03*
X3252470Y1212850D02*
D03*
Y1324610D02*
D03*
X3383280Y965200D02*
D03*
X3408680D02*
D03*
X3434080D02*
D03*
X3459480D02*
D03*
X3484880D02*
D03*
X3510280D02*
D03*
X3535680D02*
D03*
X3561080D02*
D03*
X3383280Y814200D02*
D03*
X3408680D02*
D03*
X3434080D02*
D03*
X3459480D02*
D03*
X3484880D02*
D03*
X3510280D02*
D03*
X3535680D02*
D03*
X3561080D02*
D03*
X4202430Y1122680D02*
D03*
Y1148080D02*
D03*
X4147430D02*
D03*
Y1122680D02*
D03*
X3145790Y1278890D02*
D03*
Y1253490D02*
D03*
X3200790D02*
D03*
Y1278890D02*
D03*
X3416300Y474980D02*
D03*
X3528060D02*
D03*
X3477260Y1696720D02*
D03*
X3502660D02*
D03*
X3553460D02*
D03*
X3528060D02*
D03*
X3578860D02*
D03*
X3858260D02*
D03*
X3604260D02*
D03*
X3629660D02*
D03*
X3655060D02*
D03*
X3680460D02*
D03*
X3705860D02*
D03*
X3731260D02*
D03*
X3756660D02*
D03*
X3782060D02*
D03*
X3807460D02*
D03*
X3832860D02*
D03*
X3604260Y1544320D02*
D03*
X3655060D02*
D03*
X3629660D02*
D03*
X3680460D02*
D03*
X3705860D02*
D03*
X3731260D02*
D03*
X3756660D02*
D03*
X3881120Y1822450D02*
D03*
X3855720D02*
D03*
Y1877450D02*
D03*
X3881120D02*
D03*
X3473450Y1932940D02*
D03*
X3252470Y1075690D02*
D03*
Y1187450D02*
D03*
X3267710Y1601470D02*
D03*
X3155950Y1601470D02*
D03*
X3379470Y1681480D02*
D03*
Y1569720D02*
D03*
X3172460Y1568450D02*
D03*
Y1456690D02*
D03*
X3422650Y1682750D02*
D03*
Y1570990D02*
D03*
X3258820Y1748790D02*
D03*
X3220596Y1643770D02*
D03*
X3329940Y1660770D02*
D03*
X3304540D02*
D03*
Y1715770D02*
D03*
X3329940D02*
D03*
X3247390Y1504950D02*
D03*
X3221990D02*
D03*
Y1559950D02*
D03*
X3247390D02*
D03*
X4039870Y1440180D02*
D03*
X4151630D02*
D03*
X3822700Y1930400D02*
D03*
X3934460D02*
D03*
X3500120Y1962150D02*
D03*
X3611880D02*
D03*
X4008672Y548117D02*
D03*
X4080510Y633730D02*
D03*
X3947160Y702310D02*
D03*
X3835400D02*
D03*
X4096248Y656614D02*
D03*
X4152128Y753401D02*
D03*
X4146550Y786130D02*
D03*
X4034790D02*
D03*
X4180840Y796290D02*
D03*
Y908050D02*
D03*
X4199890Y942340D02*
D03*
X4088130D02*
D03*
X4093210Y1210310D02*
D03*
Y1322070D02*
D03*
X4237990Y1494790D02*
D03*
Y1383030D02*
D03*
X4028440Y1471930D02*
D03*
Y1583690D02*
D03*
X3973830Y1595120D02*
D03*
Y1706880D02*
D03*
X4108450Y1626870D02*
D03*
Y1738630D02*
D03*
X3296148Y599464D02*
D03*
X3240268Y696251D02*
D03*
X3489960Y706120D02*
D03*
X3378200D02*
D03*
X3316635Y579460D02*
D03*
X3388473Y493847D02*
D03*
X3629660Y690880D02*
D03*
X3517900D02*
D03*
X3611880Y656590D02*
D03*
X3500120D02*
D03*
X3568700Y431800D02*
D03*
X3456940D02*
D03*
X3712210Y425450D02*
D03*
X3600450D02*
D03*
X3633470Y622300D02*
D03*
X3521710D02*
D03*
X3778250Y635000D02*
D03*
X3890010D02*
D03*
X3763010Y440690D02*
D03*
X3874770D02*
D03*
X3699510Y589280D02*
D03*
X3811270D02*
D03*
X3558540Y590550D02*
D03*
X3670300D02*
D03*
X3992856Y523738D02*
D03*
X3896069Y467858D02*
D03*
X3921760Y1854200D02*
D03*
X4033520D02*
D03*
X4144010Y1781810D02*
D03*
X4032250Y1781810D02*
D03*
X3890010Y1774190D02*
D03*
Y1662430D02*
D03*
X3473450Y1770380D02*
D03*
X3585210D02*
D03*
X3657600Y1809750D02*
D03*
X3545840D02*
D03*
X3751580Y1973580D02*
D03*
X3639820D02*
D03*
X3115310Y902970D02*
D03*
Y1014730D02*
D03*
X3892550Y1973580D02*
D03*
X3780790D02*
D03*
X3749040Y1770380D02*
D03*
X3860800D02*
D03*
X3722370D02*
D03*
X3610610D02*
D03*
X3413810Y1813120D02*
D03*
X3388410D02*
D03*
Y1758120D02*
D03*
X3413810D02*
D03*
X3505200Y1876180D02*
D03*
X3479800D02*
D03*
Y1821180D02*
D03*
X3505200D02*
D03*
X3601720Y1916820D02*
D03*
X3576320D02*
D03*
Y1861820D02*
D03*
X3601720D02*
D03*
X3689400Y1930400D02*
D03*
X3664000D02*
D03*
Y1875400D02*
D03*
X3689400D02*
D03*
X3780840Y1915160D02*
D03*
X3755440D02*
D03*
Y1860160D02*
D03*
X3780840D02*
D03*
X4052620Y1713230D02*
D03*
X4027220D02*
D03*
Y1658230D02*
D03*
X4052620D02*
D03*
X4130090Y1561660D02*
D03*
X4104690D02*
D03*
Y1506660D02*
D03*
X4130090D02*
D03*
X4127500Y898280D02*
D03*
X4102100D02*
D03*
Y843280D02*
D03*
X4127500D02*
D03*
X3970020Y649360D02*
D03*
X3944620D02*
D03*
Y594360D02*
D03*
X3970020D02*
D03*
X3876040Y581660D02*
D03*
X3850640D02*
D03*
Y526660D02*
D03*
X3876040D02*
D03*
X3785870Y543950D02*
D03*
X3760470D02*
D03*
Y488950D02*
D03*
X3785870D02*
D03*
X3688080Y531250D02*
D03*
X3662680D02*
D03*
Y476250D02*
D03*
X3688080D02*
D03*
X3594100Y542680D02*
D03*
X3568700D02*
D03*
Y487680D02*
D03*
X3594100D02*
D03*
X3498850Y582050D02*
D03*
X3473450D02*
D03*
Y527050D02*
D03*
X3498850D02*
D03*
X3147060Y1149350D02*
D03*
Y1123950D02*
D03*
X3202060D02*
D03*
Y1149350D02*
D03*
X3364230Y1489710D02*
D03*
Y1515110D02*
D03*
Y1540510D02*
D03*
X3362960Y1459230D02*
D03*
Y1432560D02*
D03*
Y1405890D02*
D03*
Y1379220D02*
D03*
D26*
X4175760Y1248410D02*
D03*
X4174050Y1286510D02*
D03*
X3940760Y1779660D02*
D03*
X3978860Y1781370D02*
D03*
X3378150Y618880D02*
D03*
X3416250Y620590D02*
D03*
X3298190Y715010D02*
D03*
X3336290Y716720D02*
D03*
X3218180Y867410D02*
D03*
X3256280Y869120D02*
D03*
X4017010Y715840D02*
D03*
X4055110Y717550D02*
D03*
X4174930Y1116380D02*
D03*
X4173220Y1154480D02*
D03*
X3173290Y1285190D02*
D03*
X3175000Y1247090D02*
D03*
X3849320Y1848240D02*
D03*
X3887420Y1849950D02*
D03*
X3298140Y1686560D02*
D03*
X3336240Y1688270D02*
D03*
X3215590Y1530740D02*
D03*
X3253690Y1532450D02*
D03*
X3420110Y1785620D02*
D03*
X3382010Y1783910D02*
D03*
X3511500Y1848680D02*
D03*
X3473400Y1846970D02*
D03*
X3608020Y1889320D02*
D03*
X3569920Y1887610D02*
D03*
X3695700Y1902900D02*
D03*
X3657600Y1901190D02*
D03*
X3787140Y1887660D02*
D03*
X3749040Y1885950D02*
D03*
X4058920Y1685730D02*
D03*
X4020820Y1684020D02*
D03*
X4136390Y1534160D02*
D03*
X4098290Y1532450D02*
D03*
X4133800Y870780D02*
D03*
X4095700Y869070D02*
D03*
X3976320Y621860D02*
D03*
X3938220Y620150D02*
D03*
X3882340Y554160D02*
D03*
X3844240Y552450D02*
D03*
X3792170Y516450D02*
D03*
X3754070Y514740D02*
D03*
X3694380Y503750D02*
D03*
X3656280Y502040D02*
D03*
X3600400Y515180D02*
D03*
X3562300Y513470D02*
D03*
X3505150Y554550D02*
D03*
X3467050Y552840D02*
D03*
X3174560Y1155650D02*
D03*
X3176270Y1117550D02*
D03*
D27*
X4129260Y1291910D02*
D03*
X3935360Y1734870D02*
D03*
X3372750Y574090D02*
D03*
X3292790Y670220D02*
D03*
X3212780Y822620D02*
D03*
X4011610Y671050D02*
D03*
X4128430Y1159880D02*
D03*
X3219790Y1241690D02*
D03*
X3843920Y1803450D02*
D03*
X3292740Y1641770D02*
D03*
X3210190Y1485950D02*
D03*
X3376610Y1739120D02*
D03*
X3468000Y1802180D02*
D03*
X3564520Y1842820D02*
D03*
X3652200Y1856400D02*
D03*
X3743640Y1841160D02*
D03*
X4015420Y1639230D02*
D03*
X4092890Y1487660D02*
D03*
X4090300Y824280D02*
D03*
X3932820Y575360D02*
D03*
X3838840Y507660D02*
D03*
X3748670Y469950D02*
D03*
X3650880Y457250D02*
D03*
X3556900Y468680D02*
D03*
X3461650Y508050D02*
D03*
X3221060Y1112150D02*
D03*
D28*
X3434080Y1050290D02*
D03*
X3307080Y1262380D02*
D03*
X3427730Y1243330D02*
D03*
X3338830Y886460D02*
D03*
X3874100Y1297940D02*
D03*
X3467100D02*
D03*
Y1474940D02*
D03*
X3872830D02*
D03*
X3964940Y1043940D02*
D03*
X3429000Y1301750D02*
D03*
X3432810Y1093470D02*
D03*
X3303430Y1136096D02*
D03*
X4058920Y1118870D02*
D03*
X4060190Y1259840D02*
D03*
X3943350Y1281430D02*
D03*
X3914140D02*
D03*
D29*
X3870960Y1238250D02*
D03*
X3930073Y992791D02*
D03*
X3578860Y1544320D02*
D03*
D30*
X3376663Y1877060D02*
D03*
D31*
X3691890Y664210D02*
D03*
D32*
Y736210D02*
D03*
M02*
