M48
;Layer_Color=9474304
;FILE_FORMAT=4:4
METRIC,LZ
;TYPE=PLATED
T01F00S00C0.7112
T02F00S00C0.8890
T03F00S00C1.0000
T04F00S00C1.0160
T05F00S00C1.0922
T06F00S00C1.1430
T07F00S00C1.1684
T08F00S00C1.2700
T09F00S00C2.5400
T10F00S00C3.0000
T11F00S00C4.5500
%
T01
X0389001Y0152908
X0329184Y0136017
T02
X0414655Y0078613
X0403479
X0394716Y0070231
X038354
X0389001Y00635
X0377825
X0381127Y0058928
X0369951
X036703Y0059055
X0363347Y006223
X0361188Y0065659
X0362966Y0069088
X035179
X0348996Y0070612
X0350012Y0065659
X0352171Y006223
X0355854Y0059055
X033782Y0070612
X031496Y0093726
X0311531Y0090297
Y0101473
X0326136Y0093726
X0408813Y0094234
X0419989
X0423545Y0090551
Y0101727
X0423799Y0138303
Y0149479
X0402844Y0147193
Y0158369
X0342265Y0157099
X0337947Y0156972
X0311404Y0149987
Y0138811
X0315595Y0160147
X0326771Y0160147
X0337947Y0168148
X0342265Y0168275
X03376663Y0187706
X0347345Y0193294
X0350012Y0196215
X0361188
X0363982Y0197358
X0375158
X0378079
X038227Y019304
X0393446
X0389255Y0197358
X0392176Y018542
X0403352
X0410845Y0173863
Y0162687
T03
X0401161Y0067105
X0393282Y0057536
X0383884Y0050766
X0374867Y0046995
X0365088Y0045725
X035569Y0046868
X0346165Y0050805
X0337275Y0057409
X0329279Y0067022
X0321278Y0082262
X0322106Y0111215
X0412843Y0115988
X040903Y0082428
X0412926Y0129191
X0409289Y0148766
X0321019Y0148595
X0321979Y0124169
X0329274Y0164177
X0337661Y0173912
X03468Y0180218
X0356452Y0184282
X036522Y018564
X0374364Y0184116
X0384392Y0180345
X0393536Y0173487
X0401542Y0163923
T04
X03992856Y00523738
X04008672Y00548117
X0408051Y0063373
X04096248Y00656614
X04152128Y00753401
X03896069Y00467858
X0387477Y0044069
X0376301
X0371221Y0042545
X0360045
X035687Y004318
X0352806Y0047498
X034163
X03388473Y00493847
X0345694Y004318
X03316635Y0057946
X03296148Y00599464
X03240268Y00696251
X03175Y007874
Y0089916
X0325247Y0107569
Y0118745
X0338328Y009652
X0340868
X0343408
X0345948
X0348488
X0351028
X0353568
X0356108
X0356616Y0108585
X0354076
X0351536
X0351028Y008142
X0348488
X0345948
X0343408
X0340868
X0338328
X0353568
X0356108
X0359156Y0108585
X0361696
X0364236
X0366776
X0369316
X0371856
X0374396
X0376936
X0379476
X0382016
X0384556
X0387096
X0409321Y0107315
Y0118491
X0418084Y0090805
Y0079629
X0409321Y0121031
Y0132207
X0403987Y0144018
X0415163
X0387096Y0123825
X0384556
X0382016
X0379476
X0376936
X0374396
X0371856
X0369316
X0366776
X0364236
X0361696
X0359156
X0356616
X0354076
X0351536
X0325247Y0121285
Y0132461
X0317246Y0145669
Y0156845
X0311658Y0165989
X03220596Y0164377
X0325882Y0174879
X0327118Y01782475
X03356793Y01854313
X0347345Y0177038
X0354584Y0180975
X0358521Y0177038
X0361061
X036576Y0180975
X0372237Y0177038
X0374904
X038608
X0389001Y0177419
Y0166243
X0397383Y0170688
Y0159512
X0403225Y0178181
X0414401Y0178181
T05
X0336423Y0148971
Y0151511
Y0154051
T06
X0397002Y0059436
Y0064936
X0402341Y0069005
X0404881
Y0074505
X0402341
X0394462Y0064936
Y0059436
X0387604Y0058166
X0385064
Y0052666
X0387604
X0378587Y0054395
X0376047
Y0048895
X0378587
X0368808Y0047625
X0366268
Y0053125
X0368808
X035941Y0054268
Y0048768
X035687
Y0054268
X0349885Y0052705
X0347345
Y0058205
X0349885
X0340995Y0059309
X0338455
Y0064809
X0340995
X0332999Y0068922
X0330459
Y0074422
X0332999
X0314706Y0112395
Y0114935
X0320206
Y0112395
X0322458Y0089662
X0324998
Y0084162
X0322458
X041021Y0084328
X041275
Y0089828
X041021
X0414743Y0112268
Y0114808
X0420243
Y0112268
X0420326Y0125471
Y0128011
X0414826
Y0125471
X0413009Y0150666
X0410469
Y0156166
X0413009
X0324739Y0155995
X0322199
Y0150495
X0324739
X0320079Y0127889
Y0125349
X0314579
Y0127889
X0330454Y0166077
X0332994
Y0171577
X0330454
X0338841Y0175812
X0341381
Y0181312
X0338841
X034798Y0182118
X035052
Y0187618
X034798
X0357632Y0186182
X0360172
Y0191682
X0357632
X03664Y019304
X036894
Y018754
X03664
X0375544Y0186016
X0378084
Y0191516
X0375544
X0385572Y0187745
X0388112
Y0182245
X0385572
X0394716Y0180887
Y0175387
X0397256
Y0180887
X0402722Y0171323
X0405262
Y0165823
X0402722
T07
X03955473Y0084039
X03930073
X03904673
X03879273
X03853873
X03828473
X03803073
X03777673
X03752273
X03726873
X03701473
X03676073
X03650673
X03752273Y00992791
X03777673
X03803073
X03828473
X03853873
X03879273
X03904673
X03930073
X03980873Y0084039
X04006273
X04031673
X0375666Y0154432
X0373126
X0370586
X0368046
X0365506
X0362966
X0360426
X0357886
X0336296Y0145923
Y0143256
Y0140589
Y0137922
X0347726Y0169672
X0350266
X0352806
X0355346
X0357886
X0360426
X0362966
X0365506
X0368046
X0370586
X0373126
X0375666
X0378206
X0380746
X0383286
X0385826
T08
X0333883Y0088646
X0343408Y0105029
X0343281Y0109347
X0330343Y01136096
X0396494Y0104394
X0405892Y0111887
X0406019Y0125984
X0394335Y0128143
X0391414
X038741Y0129794
X0387283Y0147494
X034671
Y0129794
X03429Y0130175
X0342773Y0124333
X0330708Y0126238
T09
X0397632Y0062186
X0401701Y0071584
X0405511Y0071755
X0393822Y0062015
X0388234Y0055416
X0384424Y0055245
X0379217Y0051645
X0375407Y0051474
X0369438Y0050375
X0365628Y0050204
X036004Y0051518
X035623Y0051347
X0350515Y0055455
X0346705Y0055284
X0341625Y0062059
X0337815Y0061888
X0333629Y0071672
X0329819Y0071501
X0317456Y0115565
X0317627Y0111755
X0321818Y0086741
X0325628Y0086912
X040957Y0086907
X041338Y0087078
X0417493Y0111638
X0417322Y0115448
X0417576Y0124841
X0417405Y0128651
X0413639Y0153416
X0409829Y0153245
X0325369Y0153245
X0321559Y0153074
X03175Y0124709
X0317329Y0128519
X0329814Y0168656
X0333624Y0168827
X0338201Y0178391
X0342011Y0178562
X034734Y0184697
X035115Y0184868
X0356992Y0188761
X0360802Y0188932
X036576Y0190119
X036957Y019029
X0374904Y0188595
X0378714Y0188766
X0384932Y0184824
X0388742Y0184995
X0394076Y0177966
X0397886Y0178137
X0402082Y0168402
X0405892Y0168573
T10
X0312166Y0106426
X032131
X0414401Y0106553
X0423418
Y0133731
X0414401Y0133858
X032131
X0312293Y0133985
T11
X0369189Y0066421
Y0073621
M30
