G04*
G04 #@! TF.GenerationSoftware,Altium Limited,Altium Designer,24.8.2 (39)*
G04*
G04 Layer_Color=32896*
%FSLAX44Y44*%
%MOMM*%
G71*
G04*
G04 #@! TF.SameCoordinates,A64931F2-2A1F-4A1D-9477-064251C997AC*
G04*
G04*
G04 #@! TF.FilePolarity,Positive*
G04*
G01*
G75*
%ADD10C,0.2540*%
D10*
X3273193Y1764270D02*
X3374372Y1849169D01*
X3354780Y1872518D02*
X3374372Y1849169D01*
X3253601Y1787619D02*
X3354780Y1872518D01*
X3253601Y1787619D02*
X3273193Y1764270D01*
X4118170Y1302970D02*
Y1305510D01*
X4226120D01*
Y1229310D02*
Y1305510D01*
X4118170Y1229310D02*
X4226120D01*
X4118170D02*
Y1302970D01*
X3924300Y1723780D02*
X3997960D01*
Y1831730D01*
X3921760D02*
X3997960D01*
X3921760Y1723780D02*
Y1831730D01*
Y1723780D02*
X3924300D01*
X3361690Y563000D02*
X3435350D01*
Y670950D01*
X3359150D02*
X3435350D01*
X3359150Y563000D02*
Y670950D01*
Y563000D02*
X3361690D01*
X3281730Y659130D02*
X3355390D01*
Y767080D01*
X3279190D02*
X3355390D01*
X3279190Y659130D02*
Y767080D01*
Y659130D02*
X3281730D01*
X3159760Y777240D02*
X3190240D01*
X3159760D02*
Y909320D01*
X3190240D01*
Y777240D02*
Y909320D01*
X3201720Y811530D02*
X3275380D01*
Y919480D01*
X3199180D02*
X3275380D01*
X3199180Y811530D02*
Y919480D01*
Y811530D02*
X3201720D01*
X3139440Y922020D02*
X3271520D01*
Y952500D01*
X3139440D02*
X3271520D01*
X3139440Y922020D02*
Y952500D01*
X4000550Y659960D02*
X4074210D01*
Y767910D01*
X3998010D02*
X4074210D01*
X3998010Y659960D02*
Y767910D01*
Y659960D02*
X4000550D01*
X4077970Y1062990D02*
X4108450D01*
X4077970D02*
Y1195070D01*
X4108450D01*
Y1062990D02*
Y1195070D01*
X4220210Y895350D02*
X4250690D01*
X4220210D02*
Y1027430D01*
X4250690D01*
Y895350D02*
Y1027430D01*
X3098800Y1510030D02*
X3129280D01*
Y1377950D02*
Y1510030D01*
X3098800Y1377950D02*
X3129280D01*
X3098800D02*
Y1510030D01*
X3267710Y1202690D02*
Y1334770D01*
X3237230D02*
X3267710D01*
X3237230Y1202690D02*
Y1334770D01*
Y1202690D02*
X3267710D01*
X4117340Y1170940D02*
Y1173480D01*
X4225290D01*
Y1097280D02*
Y1173480D01*
X4117340Y1097280D02*
X4225290D01*
X4117340D02*
Y1170940D01*
X3230880Y1228090D02*
Y1230630D01*
X3122930Y1228090D02*
X3230880D01*
X3122930D02*
Y1304290D01*
X3230880D01*
Y1230630D02*
Y1304290D01*
X3538220Y459740D02*
Y490220D01*
X3406140Y459740D02*
X3538220D01*
X3406140D02*
Y490220D01*
X3538220D01*
X3832860Y1792360D02*
X3906520D01*
Y1900310D01*
X3830320D02*
X3906520D01*
X3830320Y1792360D02*
Y1900310D01*
Y1792360D02*
X3832860D01*
X3375484Y1858782D02*
X3489869Y1924822D01*
X3474629Y1951218D02*
X3489869Y1924822D01*
X3360244Y1885178D02*
X3474629Y1951218D01*
X3360244Y1885178D02*
X3375484Y1858782D01*
X3237230Y1197610D02*
X3267710D01*
Y1065530D02*
Y1197610D01*
X3237230Y1065530D02*
X3267710D01*
X3237230D02*
Y1197610D01*
X3145790Y1586230D02*
X3277870Y1586230D01*
X3277870Y1616710D01*
X3145790Y1616710D02*
X3277870Y1616710D01*
X3145790Y1586230D02*
Y1616710D01*
X3394710Y1559560D02*
Y1691640D01*
X3364230D02*
X3394710D01*
X3364230Y1559560D02*
Y1691640D01*
Y1559560D02*
X3394710D01*
X3157220Y1446530D02*
X3187700D01*
X3157220D02*
Y1578610D01*
X3187700D01*
Y1446530D02*
Y1578610D01*
X3437890Y1560830D02*
Y1692910D01*
X3407410D02*
X3437890D01*
X3407410Y1560830D02*
Y1692910D01*
Y1560830D02*
X3437890D01*
X3202800Y1639435D02*
X3231442Y1629010D01*
X3202800Y1639435D02*
X3247974Y1763550D01*
X3276616Y1753125D01*
X3231442Y1629010D02*
X3276616Y1753125D01*
X3281680Y1630680D02*
X3355340D01*
Y1738630D01*
X3279140D02*
X3355340D01*
X3279140Y1630680D02*
Y1738630D01*
Y1630680D02*
X3281680D01*
X3199130Y1474860D02*
X3272790D01*
Y1582810D01*
X3196590D02*
X3272790D01*
X3196590Y1474860D02*
Y1582810D01*
Y1474860D02*
X3199130D01*
X4161790Y1424940D02*
Y1455420D01*
X4029710Y1424940D02*
X4161790D01*
X4029710D02*
Y1455420D01*
X4161790D01*
X3812540Y1915160D02*
Y1945640D01*
X3944620D01*
Y1915160D02*
Y1945640D01*
X3812540Y1915160D02*
X3944620D01*
X3489960Y1946910D02*
Y1977390D01*
X3622040D01*
Y1946910D02*
Y1977390D01*
X3489960Y1946910D02*
X3622040D01*
X4013816Y530538D02*
X4098715Y631717D01*
X4075366Y651309D02*
X4098715Y631717D01*
X3990467Y550130D02*
X4075366Y651309D01*
X3990467Y550130D02*
X4013816Y530538D01*
X3957320Y687070D02*
Y717550D01*
X3825240Y687070D02*
X3957320D01*
X3825240D02*
Y717550D01*
X3957320D01*
X4104366Y640196D02*
X4170406Y754580D01*
X4144010Y769820D02*
X4170406Y754580D01*
X4077970Y655436D02*
X4144010Y769820D01*
X4077970Y655436D02*
X4104366Y640196D01*
X4156710Y770890D02*
Y801370D01*
X4024630Y770890D02*
X4156710D01*
X4024630D02*
Y801370D01*
X4156710D01*
X4196080Y786130D02*
Y918210D01*
X4165600D02*
X4196080D01*
X4165600Y786130D02*
Y918210D01*
Y786130D02*
X4196080D01*
X4210050Y927100D02*
Y957580D01*
X4077970Y927100D02*
X4210050D01*
X4077970D02*
Y957580D01*
X4210050D01*
X4108450Y1200150D02*
Y1332230D01*
X4077970D02*
X4108450D01*
X4077970Y1200150D02*
Y1332230D01*
Y1200150D02*
X4108450D01*
X4222750Y1504950D02*
X4253230D01*
Y1372870D02*
Y1504950D01*
X4222750Y1372870D02*
X4253230D01*
X4222750D02*
Y1504950D01*
X4013200Y1461770D02*
X4043680D01*
X4013200D02*
Y1593850D01*
X4043680D01*
Y1461770D02*
Y1593850D01*
X3989070Y1584960D02*
Y1717040D01*
X3958590D02*
X3989070D01*
X3958590Y1584960D02*
Y1717040D01*
Y1584960D02*
X3989070D01*
X4093210Y1616710D02*
X4123690D01*
X4093210D02*
X4093210Y1748790D01*
X4123690D01*
Y1616710D02*
Y1748790D01*
X3248387Y712670D02*
X3314427Y598286D01*
X3221990Y697430D02*
X3248387Y712670D01*
X3221990Y697430D02*
X3288030Y583046D01*
X3314427Y598286D01*
X3500120Y690880D02*
Y721360D01*
X3368040Y690880D02*
X3500120D01*
X3368040D02*
Y721360D01*
X3500120D01*
X3298430Y577447D02*
X3383329Y476268D01*
X3406678Y495860D01*
X3321779Y597039D02*
X3406678Y495860D01*
X3298430Y577447D02*
X3321779Y597039D01*
X3639820Y675640D02*
Y706120D01*
X3507740Y675640D02*
X3639820D01*
X3507740D02*
Y706120D01*
X3639820D01*
X3622040Y641350D02*
Y671830D01*
X3489960Y641350D02*
X3622040D01*
X3489960D02*
Y671830D01*
X3622040D01*
X3446780Y447040D02*
X3578860D01*
X3446780Y416560D02*
Y447040D01*
Y416560D02*
X3578860D01*
Y447040D01*
X3590290Y440690D02*
X3722370D01*
X3590290Y410210D02*
Y440690D01*
Y410210D02*
X3722370D01*
Y440690D01*
X3643630Y607060D02*
Y637540D01*
X3511550Y607060D02*
X3643630D01*
X3511550D02*
Y637540D01*
X3643630D01*
X3768090Y619760D02*
Y650240D01*
X3900170D01*
Y619760D02*
Y650240D01*
X3768090Y619760D02*
X3900170D01*
X3752850Y425450D02*
X3884930D01*
Y455930D01*
X3752850D02*
X3884930D01*
X3752850Y425450D02*
Y455930D01*
X3689350Y574040D02*
Y604520D01*
X3821430D01*
Y574040D02*
Y604520D01*
X3689350Y574040D02*
X3821430D01*
X3548380Y575310D02*
Y605790D01*
X3680460D01*
Y575310D02*
Y605790D01*
X3548380Y575310D02*
X3680460D01*
X3879650Y475976D02*
X3994034Y542016D01*
X3879650Y475976D02*
X3894890Y449580D01*
X4009274Y515620D01*
X3994034Y542016D02*
X4009274Y515620D01*
X3911600Y1838960D02*
Y1869440D01*
X4043680Y1869440D01*
Y1838960D02*
Y1869440D01*
X3911600Y1838960D02*
X4043680Y1838960D01*
X4022090Y1797050D02*
X4154170D01*
X4022090Y1766570D02*
Y1797050D01*
Y1766570D02*
X4154170Y1766570D01*
X4154170Y1797050D01*
X3874770Y1652270D02*
Y1784350D01*
Y1652270D02*
X3905250D01*
Y1784350D01*
X3874770D02*
X3905250D01*
X3463290Y1755140D02*
X3595370Y1755140D01*
Y1785620D01*
X3463290D02*
X3595370D01*
X3463290Y1755140D02*
Y1785620D01*
X3535680Y1824990D02*
X3667760D01*
X3535680Y1794510D02*
Y1824990D01*
Y1794510D02*
X3667760D01*
Y1824990D01*
X3761740Y1958340D02*
Y1988820D01*
X3629660Y1958340D02*
X3761740D01*
X3629660D02*
Y1988820D01*
X3761740D01*
X3100070Y892810D02*
X3130550D01*
X3100070D02*
Y1024890D01*
X3130550D01*
Y892810D02*
Y1024890D01*
X3902710Y1958340D02*
Y1988820D01*
X3770630Y1958340D02*
X3902710D01*
X3770630D02*
Y1988820D01*
X3902710D01*
X3738880Y1755140D02*
X3870960D01*
Y1785620D01*
X3738880D02*
X3870960D01*
X3738880Y1755140D02*
Y1785620D01*
X3600450D02*
X3732530D01*
X3600450Y1755140D02*
Y1785620D01*
Y1755140D02*
X3732530D01*
Y1785620D01*
X3363010Y1728030D02*
X3365550D01*
X3363010D02*
Y1835980D01*
X3439210D01*
Y1728030D02*
Y1835980D01*
X3365550Y1728030D02*
X3439210D01*
X3454400Y1791090D02*
X3456940D01*
X3454400D02*
Y1899040D01*
X3530600D01*
Y1791090D02*
Y1899040D01*
X3456940Y1791090D02*
X3530600D01*
X3550920Y1831730D02*
X3553460D01*
X3550920D02*
Y1939680D01*
X3627120D01*
Y1831730D02*
Y1939680D01*
X3553460Y1831730D02*
X3627120D01*
X3638600Y1845310D02*
X3641140D01*
X3638600D02*
Y1953260D01*
X3714800D01*
Y1845310D02*
Y1953260D01*
X3641140Y1845310D02*
X3714800D01*
X3730040Y1830070D02*
X3732580D01*
X3730040D02*
Y1938020D01*
X3806240D01*
Y1830070D02*
Y1938020D01*
X3732580Y1830070D02*
X3806240D01*
X4001820Y1628140D02*
X4004360D01*
X4001820D02*
Y1736090D01*
X4078020D01*
Y1628140D02*
Y1736090D01*
X4004360Y1628140D02*
X4078020D01*
X4079290Y1476570D02*
X4081830D01*
X4079290D02*
Y1584520D01*
X4155490D01*
Y1476570D02*
Y1584520D01*
X4081830Y1476570D02*
X4155490D01*
X4076700Y813190D02*
X4079240D01*
X4076700D02*
Y921140D01*
X4152900D01*
Y813190D02*
Y921140D01*
X4079240Y813190D02*
X4152900D01*
X3919220Y564270D02*
X3921760D01*
X3919220D02*
Y672220D01*
X3995420D01*
Y564270D02*
Y672220D01*
X3921760Y564270D02*
X3995420D01*
X3825240Y496570D02*
X3827780D01*
X3825240D02*
Y604520D01*
X3901440D01*
Y496570D02*
Y604520D01*
X3827780Y496570D02*
X3901440D01*
X3735070Y458860D02*
X3737610D01*
X3735070D02*
Y566810D01*
X3811270D01*
Y458860D02*
Y566810D01*
X3737610Y458860D02*
X3811270D01*
X3637280Y446160D02*
X3639820D01*
X3637280D02*
Y554110D01*
X3713480D01*
Y446160D02*
Y554110D01*
X3639820Y446160D02*
X3713480D01*
X3543300Y457590D02*
X3545840D01*
X3543300D02*
Y565540D01*
X3619500D01*
Y457590D02*
Y565540D01*
X3545840Y457590D02*
X3619500D01*
X3448050Y496960D02*
X3450590D01*
X3448050D02*
Y604910D01*
X3524250D01*
Y496960D02*
Y604910D01*
X3450590Y496960D02*
X3524250D01*
X3232150Y1098550D02*
Y1101090D01*
X3124200Y1098550D02*
X3232150D01*
X3124200D02*
Y1174750D01*
X3232150D01*
Y1101090D02*
Y1174750D01*
X4149093Y1195066D02*
X4151632Y1197605D01*
X4156711D01*
X4159250Y1195066D01*
Y1192527D01*
X4156711Y1189987D01*
X4151632D01*
X4149093Y1187448D01*
Y1184909D01*
X4151632Y1182370D01*
X4156711D01*
X4159250Y1184909D01*
X4133858Y1182370D02*
X4144015D01*
X4133858Y1192527D01*
Y1195066D01*
X4136397Y1197605D01*
X4141476D01*
X4144015Y1195066D01*
X4118623Y1197605D02*
X4123701Y1195066D01*
X4128780Y1189987D01*
Y1184909D01*
X4126241Y1182370D01*
X4121162D01*
X4118623Y1184909D01*
Y1187448D01*
X4121162Y1189987D01*
X4128780D01*
X3154683Y1325876D02*
X3157223Y1328415D01*
X3162301D01*
X3164840Y1325876D01*
Y1323337D01*
X3162301Y1320797D01*
X3157223D01*
X3154683Y1318258D01*
Y1315719D01*
X3157223Y1313180D01*
X3162301D01*
X3164840Y1315719D01*
X3139448Y1313180D02*
X3149605D01*
X3139448Y1323337D01*
Y1325876D01*
X3141987Y1328415D01*
X3147066D01*
X3149605Y1325876D01*
X3124213Y1328415D02*
X3134370D01*
Y1320797D01*
X3129291Y1323337D01*
X3126752D01*
X3124213Y1320797D01*
Y1315719D01*
X3126752Y1313180D01*
X3131831D01*
X3134370Y1315719D01*
X4119880Y1203960D02*
Y1219195D01*
X4112263D01*
X4109723Y1216656D01*
Y1211578D01*
X4112263Y1209038D01*
X4119880D01*
X4114802D02*
X4109723Y1203960D01*
X4094488Y1219195D02*
X4104645D01*
Y1211578D01*
X4099567Y1214117D01*
X4097027D01*
X4094488Y1211578D01*
Y1206499D01*
X4097027Y1203960D01*
X4102106D01*
X4104645Y1206499D01*
X4079253Y1203960D02*
X4089410D01*
X4079253Y1214117D01*
Y1216656D01*
X4081792Y1219195D01*
X4086871D01*
X4089410Y1216656D01*
X4249420Y1036320D02*
Y1051555D01*
X4241802D01*
X4239263Y1049016D01*
Y1043938D01*
X4241802Y1041398D01*
X4249420D01*
X4244342D02*
X4239263Y1036320D01*
X4224028Y1051555D02*
X4234185D01*
Y1043938D01*
X4229107Y1046477D01*
X4226567D01*
X4224028Y1043938D01*
Y1038859D01*
X4226567Y1036320D01*
X4231646D01*
X4234185Y1038859D01*
X4218950Y1036320D02*
X4213871D01*
X4216411D01*
Y1051555D01*
X4218950Y1049016D01*
X3279140Y1343660D02*
Y1358895D01*
X3271523D01*
X3268983Y1356356D01*
Y1351277D01*
X3271523Y1348738D01*
X3279140D01*
X3274062D02*
X3268983Y1343660D01*
X3253748Y1358895D02*
X3263905D01*
Y1351277D01*
X3258827Y1353817D01*
X3256288D01*
X3253748Y1351277D01*
Y1346199D01*
X3256288Y1343660D01*
X3261366D01*
X3263905Y1346199D01*
X3248670Y1356356D02*
X3246131Y1358895D01*
X3241052D01*
X3238513Y1356356D01*
Y1346199D01*
X3241052Y1343660D01*
X3246131D01*
X3248670Y1346199D01*
Y1356356D01*
X3128010Y1518920D02*
Y1534155D01*
X3120392D01*
X3117853Y1531616D01*
Y1526537D01*
X3120392Y1523998D01*
X3128010D01*
X3122932D02*
X3117853Y1518920D01*
X3105157D02*
Y1534155D01*
X3112775Y1526537D01*
X3102618D01*
X3097540Y1521459D02*
X3095001Y1518920D01*
X3089922D01*
X3087383Y1521459D01*
Y1531616D01*
X3089922Y1534155D01*
X3095001D01*
X3097540Y1531616D01*
Y1529077D01*
X3095001Y1526537D01*
X3087383D01*
X3208017Y972818D02*
X3210556Y975358D01*
X3215634D01*
X3218174Y972818D01*
Y970279D01*
X3215634Y967740D01*
X3210556D01*
X3208017Y965201D01*
Y962662D01*
X3210556Y960123D01*
X3215634D01*
X3218174Y962662D01*
X3192782Y960123D02*
X3202938D01*
X3192782Y970279D01*
Y972818D01*
X3195321Y975358D01*
X3200399D01*
X3202938Y972818D01*
X3180086Y960123D02*
Y975358D01*
X3187703Y967740D01*
X3177547D01*
X3304537Y787398D02*
X3307076Y789938D01*
X3312154D01*
X3314693Y787398D01*
Y784859D01*
X3312154Y782320D01*
X3307076D01*
X3304537Y779781D01*
Y777242D01*
X3307076Y774703D01*
X3312154D01*
X3314693Y777242D01*
X3289301Y774703D02*
X3299458D01*
X3289301Y784859D01*
Y787398D01*
X3291841Y789938D01*
X3296919D01*
X3299458Y787398D01*
X3284223D02*
X3281684Y789938D01*
X3276606D01*
X3274066Y787398D01*
Y784859D01*
X3276606Y782320D01*
X3279145D01*
X3276606D01*
X3274066Y779781D01*
Y777242D01*
X3276606Y774703D01*
X3281684D01*
X3284223Y777242D01*
X3423923Y692654D02*
X3426462Y695193D01*
X3431541D01*
X3434080Y692654D01*
Y690115D01*
X3431541Y687576D01*
X3426462D01*
X3423923Y685036D01*
Y682497D01*
X3426462Y679958D01*
X3431541D01*
X3434080Y682497D01*
X3408688Y679958D02*
X3418845D01*
X3408688Y690115D01*
Y692654D01*
X3411227Y695193D01*
X3416306D01*
X3418845Y692654D01*
X3393453Y679958D02*
X3403610D01*
X3393453Y690115D01*
Y692654D01*
X3395992Y695193D01*
X3401071D01*
X3403610Y692654D01*
X3512823Y626614D02*
X3515363Y629153D01*
X3520441D01*
X3522980Y626614D01*
Y624075D01*
X3520441Y621535D01*
X3515363D01*
X3512823Y618996D01*
Y616457D01*
X3515363Y613918D01*
X3520441D01*
X3522980Y616457D01*
X3497588Y613918D02*
X3507745D01*
X3497588Y624075D01*
Y626614D01*
X3500127Y629153D01*
X3505206D01*
X3507745Y626614D01*
X3492510Y613918D02*
X3487432D01*
X3489971D01*
Y629153D01*
X3492510Y626614D01*
X3608073Y587244D02*
X3610612Y589783D01*
X3615691D01*
X3618230Y587244D01*
Y584705D01*
X3615691Y582165D01*
X3610612D01*
X3608073Y579626D01*
Y577087D01*
X3610612Y574548D01*
X3615691D01*
X3618230Y577087D01*
X3592838Y574548D02*
X3602995D01*
X3592838Y584705D01*
Y587244D01*
X3595378Y589783D01*
X3600456D01*
X3602995Y587244D01*
X3587760D02*
X3585221Y589783D01*
X3580142D01*
X3577603Y587244D01*
Y577087D01*
X3580142Y574548D01*
X3585221D01*
X3587760Y577087D01*
Y587244D01*
X3702053Y575814D02*
X3704593Y578353D01*
X3709671D01*
X3712210Y575814D01*
Y573275D01*
X3709671Y570736D01*
X3704593D01*
X3702053Y568196D01*
Y565657D01*
X3704593Y563118D01*
X3709671D01*
X3712210Y565657D01*
X3696975Y563118D02*
X3691897D01*
X3694436D01*
Y578353D01*
X3696975Y575814D01*
X3684279Y565657D02*
X3681740Y563118D01*
X3676661D01*
X3674122Y565657D01*
Y575814D01*
X3676661Y578353D01*
X3681740D01*
X3684279Y575814D01*
Y573275D01*
X3681740Y570736D01*
X3674122D01*
X3799843Y588514D02*
X3802383Y591053D01*
X3807461D01*
X3810000Y588514D01*
Y585975D01*
X3807461Y583436D01*
X3802383D01*
X3799843Y580896D01*
Y578357D01*
X3802383Y575818D01*
X3807461D01*
X3810000Y578357D01*
X3794765Y575818D02*
X3789687D01*
X3792226D01*
Y591053D01*
X3794765Y588514D01*
X3782069D02*
X3779530Y591053D01*
X3774452D01*
X3771912Y588514D01*
Y585975D01*
X3774452Y583436D01*
X3771912Y580896D01*
Y578357D01*
X3774452Y575818D01*
X3779530D01*
X3782069Y578357D01*
Y580896D01*
X3779530Y583436D01*
X3782069Y585975D01*
Y588514D01*
X3779530Y583436D02*
X3774452D01*
X3890013Y626106D02*
X3892552Y628645D01*
X3897631D01*
X3900170Y626106D01*
Y623567D01*
X3897631Y621027D01*
X3892552D01*
X3890013Y618488D01*
Y615949D01*
X3892552Y613410D01*
X3897631D01*
X3900170Y615949D01*
X3884935Y613410D02*
X3879857D01*
X3882396D01*
Y628645D01*
X3884935Y626106D01*
X3872239Y628645D02*
X3862082D01*
Y626106D01*
X3872239Y615949D01*
Y613410D01*
X3983993Y693924D02*
X3986533Y696463D01*
X3991611D01*
X3994150Y693924D01*
Y691385D01*
X3991611Y688846D01*
X3986533D01*
X3983993Y686306D01*
Y683767D01*
X3986533Y681228D01*
X3991611D01*
X3994150Y683767D01*
X3978915Y681228D02*
X3973837D01*
X3976376D01*
Y696463D01*
X3978915Y693924D01*
X3956062Y696463D02*
X3961141Y693924D01*
X3966219Y688846D01*
Y683767D01*
X3963680Y681228D01*
X3958601D01*
X3956062Y683767D01*
Y686306D01*
X3958601Y688846D01*
X3966219D01*
X4062733Y789428D02*
X4065273Y791967D01*
X4070351D01*
X4072890Y789428D01*
Y786889D01*
X4070351Y784350D01*
X4065273D01*
X4062733Y781810D01*
Y779271D01*
X4065273Y776732D01*
X4070351D01*
X4072890Y779271D01*
X4057655Y776732D02*
X4052577D01*
X4055116D01*
Y791967D01*
X4057655Y789428D01*
X4034802Y791967D02*
X4044959D01*
Y784350D01*
X4039881Y786889D01*
X4037342D01*
X4034802Y784350D01*
Y779271D01*
X4037342Y776732D01*
X4042420D01*
X4044959Y779271D01*
X4141473Y942844D02*
X4144012Y945383D01*
X4149091D01*
X4151630Y942844D01*
Y940305D01*
X4149091Y937766D01*
X4144012D01*
X4141473Y935226D01*
Y932687D01*
X4144012Y930148D01*
X4149091D01*
X4151630Y932687D01*
X4136395Y930148D02*
X4131317D01*
X4133856D01*
Y945383D01*
X4136395Y942844D01*
X4116082Y930148D02*
Y945383D01*
X4123699Y937766D01*
X4113542D01*
X4214625Y1327146D02*
X4217165Y1329685D01*
X4222243D01*
X4224782Y1327146D01*
Y1324607D01*
X4222243Y1322068D01*
X4217165D01*
X4214625Y1319528D01*
Y1316989D01*
X4217165Y1314450D01*
X4222243D01*
X4224782Y1316989D01*
X4209547Y1314450D02*
X4204469D01*
X4207008D01*
Y1329685D01*
X4209547Y1327146D01*
X4196851D02*
X4194312Y1329685D01*
X4189233D01*
X4186694Y1327146D01*
Y1324607D01*
X4189233Y1322068D01*
X4191773D01*
X4189233D01*
X4186694Y1319528D01*
Y1316989D01*
X4189233Y1314450D01*
X4194312D01*
X4196851Y1316989D01*
X4144013Y1606038D02*
X4146552Y1608577D01*
X4151631D01*
X4154170Y1606038D01*
Y1603499D01*
X4151631Y1600959D01*
X4146552D01*
X4144013Y1598420D01*
Y1595881D01*
X4146552Y1593342D01*
X4151631D01*
X4154170Y1595881D01*
X4138935Y1593342D02*
X4133857D01*
X4136396D01*
Y1608577D01*
X4138935Y1606038D01*
X4116082Y1593342D02*
X4126239D01*
X4116082Y1603499D01*
Y1606038D01*
X4118622Y1608577D01*
X4123700D01*
X4126239Y1606038D01*
X4066543Y1757676D02*
X4069083Y1760215D01*
X4074161D01*
X4076700Y1757676D01*
Y1755137D01*
X4074161Y1752598D01*
X4069083D01*
X4066543Y1750058D01*
Y1747519D01*
X4069083Y1744980D01*
X4074161D01*
X4076700Y1747519D01*
X4061465Y1744980D02*
X4056387D01*
X4058926D01*
Y1760215D01*
X4061465Y1757676D01*
X4048769Y1744980D02*
X4043691D01*
X4046230D01*
Y1760215D01*
X4048769Y1757676D01*
X3986533Y1853434D02*
X3989073Y1855973D01*
X3994151D01*
X3996690Y1853434D01*
Y1850895D01*
X3994151Y1848356D01*
X3989073D01*
X3986533Y1845816D01*
Y1843277D01*
X3989073Y1840738D01*
X3994151D01*
X3996690Y1843277D01*
X3981455Y1840738D02*
X3976377D01*
X3978916D01*
Y1855973D01*
X3981455Y1853434D01*
X3968759D02*
X3966220Y1855973D01*
X3961141D01*
X3958602Y1853434D01*
Y1843277D01*
X3961141Y1840738D01*
X3966220D01*
X3968759Y1843277D01*
Y1853434D01*
X3895093Y1922014D02*
X3897632Y1924553D01*
X3902711D01*
X3905250Y1922014D01*
Y1919475D01*
X3902711Y1916935D01*
X3897632D01*
X3895093Y1914396D01*
Y1911857D01*
X3897632Y1909318D01*
X3902711D01*
X3905250Y1911857D01*
X3890015D02*
X3887476Y1909318D01*
X3882397D01*
X3879858Y1911857D01*
Y1922014D01*
X3882397Y1924553D01*
X3887476D01*
X3890015Y1922014D01*
Y1919475D01*
X3887476Y1916935D01*
X3879858D01*
X3794763Y1959606D02*
X3797303Y1962145D01*
X3802381D01*
X3804920Y1959606D01*
Y1957067D01*
X3802381Y1954527D01*
X3797303D01*
X3794763Y1951988D01*
Y1949449D01*
X3797303Y1946910D01*
X3802381D01*
X3804920Y1949449D01*
X3789685Y1959606D02*
X3787146Y1962145D01*
X3782067D01*
X3779528Y1959606D01*
Y1957067D01*
X3782067Y1954527D01*
X3779528Y1951988D01*
Y1949449D01*
X3782067Y1946910D01*
X3787146D01*
X3789685Y1949449D01*
Y1951988D01*
X3787146Y1954527D01*
X3789685Y1957067D01*
Y1959606D01*
X3787146Y1954527D02*
X3782067D01*
X3703323Y1974846D02*
X3705862Y1977385D01*
X3710941D01*
X3713480Y1974846D01*
Y1972307D01*
X3710941Y1969767D01*
X3705862D01*
X3703323Y1967228D01*
Y1964689D01*
X3705862Y1962150D01*
X3710941D01*
X3713480Y1964689D01*
X3698245Y1977385D02*
X3688088D01*
Y1974846D01*
X3698245Y1964689D01*
Y1962150D01*
X3615693Y1961384D02*
X3618232Y1963923D01*
X3623311D01*
X3625850Y1961384D01*
Y1958845D01*
X3623311Y1956306D01*
X3618232D01*
X3615693Y1953766D01*
Y1951227D01*
X3618232Y1948688D01*
X3623311D01*
X3625850Y1951227D01*
X3600458Y1963923D02*
X3605536Y1961384D01*
X3610615Y1956306D01*
Y1951227D01*
X3608076Y1948688D01*
X3602997D01*
X3600458Y1951227D01*
Y1953766D01*
X3602997Y1956306D01*
X3610615D01*
X3519173Y1920744D02*
X3521713Y1923283D01*
X3526791D01*
X3529330Y1920744D01*
Y1918205D01*
X3526791Y1915665D01*
X3521713D01*
X3519173Y1913126D01*
Y1910587D01*
X3521713Y1908048D01*
X3526791D01*
X3529330Y1910587D01*
X3503938Y1923283D02*
X3514095D01*
Y1915665D01*
X3509017Y1918205D01*
X3506477D01*
X3503938Y1915665D01*
Y1910587D01*
X3506477Y1908048D01*
X3511556D01*
X3514095Y1910587D01*
X3427733Y1857498D02*
X3430273Y1860037D01*
X3435351D01*
X3437890Y1857498D01*
Y1854959D01*
X3435351Y1852419D01*
X3430273D01*
X3427733Y1849880D01*
Y1847341D01*
X3430273Y1844802D01*
X3435351D01*
X3437890Y1847341D01*
X3415038Y1844802D02*
Y1860037D01*
X3422655Y1852419D01*
X3412498D01*
X3343913Y1760216D02*
X3346453Y1762755D01*
X3351531D01*
X3354070Y1760216D01*
Y1757677D01*
X3351531Y1755137D01*
X3346453D01*
X3343913Y1752598D01*
Y1750059D01*
X3346453Y1747520D01*
X3351531D01*
X3354070Y1750059D01*
X3338835Y1760216D02*
X3336296Y1762755D01*
X3331217D01*
X3328678Y1760216D01*
Y1757677D01*
X3331217Y1755137D01*
X3333757D01*
X3331217D01*
X3328678Y1752598D01*
Y1750059D01*
X3331217Y1747520D01*
X3336296D01*
X3338835Y1750059D01*
X3261363Y1604514D02*
X3263903Y1607053D01*
X3268981D01*
X3271520Y1604514D01*
Y1601975D01*
X3268981Y1599435D01*
X3263903D01*
X3261363Y1596896D01*
Y1594357D01*
X3263903Y1591818D01*
X3268981D01*
X3271520Y1594357D01*
X3246128Y1591818D02*
X3256285D01*
X3246128Y1601975D01*
Y1604514D01*
X3248667Y1607053D01*
X3253746D01*
X3256285Y1604514D01*
X3145783Y963932D02*
Y979167D01*
X3138166D01*
X3135627Y976628D01*
Y971550D01*
X3138166Y969011D01*
X3145783D01*
X3140705D02*
X3135627Y963932D01*
X3122931D02*
Y979167D01*
X3130548Y971550D01*
X3120392D01*
X3115313Y976628D02*
X3112774Y979167D01*
X3107696D01*
X3105157Y976628D01*
Y974089D01*
X3107696Y971550D01*
X3105157Y969011D01*
Y966472D01*
X3107696Y963932D01*
X3112774D01*
X3115313Y966472D01*
Y969011D01*
X3112774Y971550D01*
X3115313Y974089D01*
Y976628D01*
X3112774Y971550D02*
X3107696D01*
X3270250Y961390D02*
Y976625D01*
X3262632D01*
X3260093Y974086D01*
Y969007D01*
X3262632Y966468D01*
X3270250D01*
X3265172D02*
X3260093Y961390D01*
X3247397D02*
Y976625D01*
X3255015Y969007D01*
X3244858D01*
X3239780Y976625D02*
X3229623D01*
Y974086D01*
X3239780Y963929D01*
Y961390D01*
X3313684Y722122D02*
Y737357D01*
X3306067D01*
X3303527Y734818D01*
Y729740D01*
X3306067Y727200D01*
X3313684D01*
X3308606D02*
X3303527Y722122D01*
X3290831D02*
Y737357D01*
X3298449Y729740D01*
X3288292D01*
X3273057Y737357D02*
X3278135Y734818D01*
X3283214Y729740D01*
Y724661D01*
X3280675Y722122D01*
X3275596D01*
X3273057Y724661D01*
Y727200D01*
X3275596Y729740D01*
X3283214D01*
X3498850Y730250D02*
Y745485D01*
X3491233D01*
X3488693Y742946D01*
Y737868D01*
X3491233Y735328D01*
X3498850D01*
X3493772D02*
X3488693Y730250D01*
X3475997D02*
Y745485D01*
X3483615Y737868D01*
X3473458D01*
X3458223Y745485D02*
X3468380D01*
Y737868D01*
X3463301Y740407D01*
X3460762D01*
X3458223Y737868D01*
Y732789D01*
X3460762Y730250D01*
X3465841D01*
X3468380Y732789D01*
X3405886Y606552D02*
Y621787D01*
X3398268D01*
X3395729Y619248D01*
Y614170D01*
X3398268Y611630D01*
X3405886D01*
X3400808D02*
X3395729Y606552D01*
X3383033D02*
Y621787D01*
X3390651Y614170D01*
X3380494D01*
X3367798Y606552D02*
Y621787D01*
X3375416Y614170D01*
X3365259D01*
X3638550Y715010D02*
Y730245D01*
X3630933D01*
X3628393Y727706D01*
Y722627D01*
X3630933Y720088D01*
X3638550D01*
X3633472D02*
X3628393Y715010D01*
X3615697D02*
Y730245D01*
X3623315Y722627D01*
X3613158D01*
X3608080Y727706D02*
X3605541Y730245D01*
X3600462D01*
X3597923Y727706D01*
Y725167D01*
X3600462Y722627D01*
X3603001D01*
X3600462D01*
X3597923Y720088D01*
Y717549D01*
X3600462Y715010D01*
X3605541D01*
X3608080Y717549D01*
X3536950Y499110D02*
Y514345D01*
X3529333D01*
X3526793Y511806D01*
Y506727D01*
X3529333Y504188D01*
X3536950D01*
X3531872D02*
X3526793Y499110D01*
X3514097D02*
Y514345D01*
X3521715Y506727D01*
X3511558D01*
X3496323Y499110D02*
X3506480D01*
X3496323Y509267D01*
Y511806D01*
X3498862Y514345D01*
X3503941D01*
X3506480Y511806D01*
X3620770Y680720D02*
Y695955D01*
X3613152D01*
X3610613Y693416D01*
Y688337D01*
X3613152Y685798D01*
X3620770D01*
X3615692D02*
X3610613Y680720D01*
X3597917D02*
Y695955D01*
X3605535Y688337D01*
X3595378D01*
X3590300Y680720D02*
X3585222D01*
X3587761D01*
Y695955D01*
X3590300Y693416D01*
X3577590Y455930D02*
Y471165D01*
X3569973D01*
X3567433Y468626D01*
Y463548D01*
X3569973Y461008D01*
X3577590D01*
X3572512D02*
X3567433Y455930D01*
X3554738D02*
Y471165D01*
X3562355Y463548D01*
X3552198D01*
X3547120Y468626D02*
X3544581Y471165D01*
X3539502D01*
X3536963Y468626D01*
Y458469D01*
X3539502Y455930D01*
X3544581D01*
X3547120Y458469D01*
Y468626D01*
X3642360Y646430D02*
Y661665D01*
X3634742D01*
X3632203Y659126D01*
Y654047D01*
X3634742Y651508D01*
X3642360D01*
X3637282D02*
X3632203Y646430D01*
X3627125Y659126D02*
X3624586Y661665D01*
X3619507D01*
X3616968Y659126D01*
Y656587D01*
X3619507Y654047D01*
X3622047D01*
X3619507D01*
X3616968Y651508D01*
Y648969D01*
X3619507Y646430D01*
X3624586D01*
X3627125Y648969D01*
X3611890D02*
X3609351Y646430D01*
X3604272D01*
X3601733Y648969D01*
Y659126D01*
X3604272Y661665D01*
X3609351D01*
X3611890Y659126D01*
Y656587D01*
X3609351Y654047D01*
X3601733D01*
X3721100Y449580D02*
Y464815D01*
X3713482D01*
X3710943Y462276D01*
Y457197D01*
X3713482Y454658D01*
X3721100D01*
X3716022D02*
X3710943Y449580D01*
X3705865Y462276D02*
X3703326Y464815D01*
X3698247D01*
X3695708Y462276D01*
Y459737D01*
X3698247Y457197D01*
X3700787D01*
X3698247D01*
X3695708Y454658D01*
Y452119D01*
X3698247Y449580D01*
X3703326D01*
X3705865Y452119D01*
X3690630Y462276D02*
X3688091Y464815D01*
X3683012D01*
X3680473Y462276D01*
Y459737D01*
X3683012Y457197D01*
X3680473Y454658D01*
Y452119D01*
X3683012Y449580D01*
X3688091D01*
X3690630Y452119D01*
Y454658D01*
X3688091Y457197D01*
X3690630Y459737D01*
Y462276D01*
X3688091Y457197D02*
X3683012D01*
X3679190Y614680D02*
Y629915D01*
X3671573D01*
X3669033Y627376D01*
Y622298D01*
X3671573Y619758D01*
X3679190D01*
X3674112D02*
X3669033Y614680D01*
X3663955Y627376D02*
X3661416Y629915D01*
X3656337D01*
X3653798Y627376D01*
Y624837D01*
X3656337Y622298D01*
X3658877D01*
X3656337D01*
X3653798Y619758D01*
Y617219D01*
X3656337Y614680D01*
X3661416D01*
X3663955Y617219D01*
X3648720Y629915D02*
X3638563D01*
Y627376D01*
X3648720Y617219D01*
Y614680D01*
X3883660Y464820D02*
Y480055D01*
X3876042D01*
X3873503Y477516D01*
Y472438D01*
X3876042Y469898D01*
X3883660D01*
X3878582D02*
X3873503Y464820D01*
X3868425Y477516D02*
X3865886Y480055D01*
X3860807D01*
X3858268Y477516D01*
Y474977D01*
X3860807Y472438D01*
X3863347D01*
X3860807D01*
X3858268Y469898D01*
Y467359D01*
X3860807Y464820D01*
X3865886D01*
X3868425Y467359D01*
X3843033Y480055D02*
X3848112Y477516D01*
X3853190Y472438D01*
Y467359D01*
X3850651Y464820D01*
X3845572D01*
X3843033Y467359D01*
Y469898D01*
X3845572Y472438D01*
X3853190D01*
X3820160Y613410D02*
Y628645D01*
X3812542D01*
X3810003Y626106D01*
Y621027D01*
X3812542Y618488D01*
X3820160D01*
X3815082D02*
X3810003Y613410D01*
X3804925Y626106D02*
X3802386Y628645D01*
X3797307D01*
X3794768Y626106D01*
Y623567D01*
X3797307Y621027D01*
X3799846D01*
X3797307D01*
X3794768Y618488D01*
Y615949D01*
X3797307Y613410D01*
X3802386D01*
X3804925Y615949D01*
X3779533Y628645D02*
X3789690D01*
Y621027D01*
X3784612Y623567D01*
X3782072D01*
X3779533Y621027D01*
Y615949D01*
X3782072Y613410D01*
X3787151D01*
X3789690Y615949D01*
X4008374Y551434D02*
Y566669D01*
X4000757D01*
X3998217Y564130D01*
Y559052D01*
X4000757Y556512D01*
X4008374D01*
X4003296D02*
X3998217Y551434D01*
X3993139Y564130D02*
X3990600Y566669D01*
X3985522D01*
X3982982Y564130D01*
Y561591D01*
X3985522Y559052D01*
X3988061D01*
X3985522D01*
X3982982Y556512D01*
Y553973D01*
X3985522Y551434D01*
X3990600D01*
X3993139Y553973D01*
X3970286Y551434D02*
Y566669D01*
X3977904Y559052D01*
X3967747D01*
X3898900Y659130D02*
Y674365D01*
X3891282D01*
X3888743Y671826D01*
Y666748D01*
X3891282Y664208D01*
X3898900D01*
X3893822D02*
X3888743Y659130D01*
X3883665Y671826D02*
X3881126Y674365D01*
X3876047D01*
X3873508Y671826D01*
Y669287D01*
X3876047Y666748D01*
X3878587D01*
X3876047D01*
X3873508Y664208D01*
Y661669D01*
X3876047Y659130D01*
X3881126D01*
X3883665Y661669D01*
X3868430Y671826D02*
X3865891Y674365D01*
X3860812D01*
X3858273Y671826D01*
Y669287D01*
X3860812Y666748D01*
X3863351D01*
X3860812D01*
X3858273Y664208D01*
Y661669D01*
X3860812Y659130D01*
X3865891D01*
X3868430Y661669D01*
X4098036Y660654D02*
Y675889D01*
X4090418D01*
X4087879Y673350D01*
Y668271D01*
X4090418Y665732D01*
X4098036D01*
X4092958D02*
X4087879Y660654D01*
X4082801Y673350D02*
X4080262Y675889D01*
X4075183D01*
X4072644Y673350D01*
Y670811D01*
X4075183Y668271D01*
X4077722D01*
X4075183D01*
X4072644Y665732D01*
Y663193D01*
X4075183Y660654D01*
X4080262D01*
X4082801Y663193D01*
X4057409Y660654D02*
X4067566D01*
X4057409Y670811D01*
Y673350D01*
X4059948Y675889D01*
X4065027D01*
X4067566Y673350D01*
X3956050Y726440D02*
Y741675D01*
X3948433D01*
X3945893Y739136D01*
Y734057D01*
X3948433Y731518D01*
X3956050D01*
X3950972D02*
X3945893Y726440D01*
X3940815Y739136D02*
X3938276Y741675D01*
X3933197D01*
X3930658Y739136D01*
Y736597D01*
X3933197Y734057D01*
X3935737D01*
X3933197D01*
X3930658Y731518D01*
Y728979D01*
X3933197Y726440D01*
X3938276D01*
X3940815Y728979D01*
X3925580Y726440D02*
X3920501D01*
X3923041D01*
Y741675D01*
X3925580Y739136D01*
X4169664Y779272D02*
Y794507D01*
X4162047D01*
X4159507Y791968D01*
Y786889D01*
X4162047Y784350D01*
X4169664D01*
X4164586D02*
X4159507Y779272D01*
X4154429Y791968D02*
X4151890Y794507D01*
X4146812D01*
X4144272Y791968D01*
Y789429D01*
X4146812Y786889D01*
X4149351D01*
X4146812D01*
X4144272Y784350D01*
Y781811D01*
X4146812Y779272D01*
X4151890D01*
X4154429Y781811D01*
X4139194Y791968D02*
X4136655Y794507D01*
X4131576D01*
X4129037Y791968D01*
Y781811D01*
X4131576Y779272D01*
X4136655D01*
X4139194Y781811D01*
Y791968D01*
X4155440Y810260D02*
Y825495D01*
X4147823D01*
X4145283Y822956D01*
Y817878D01*
X4147823Y815338D01*
X4155440D01*
X4150362D02*
X4145283Y810260D01*
X4130048D02*
X4140205D01*
X4130048Y820417D01*
Y822956D01*
X4132587Y825495D01*
X4137666D01*
X4140205Y822956D01*
X4124970Y812799D02*
X4122431Y810260D01*
X4117352D01*
X4114813Y812799D01*
Y822956D01*
X4117352Y825495D01*
X4122431D01*
X4124970Y822956D01*
Y820417D01*
X4122431Y817878D01*
X4114813D01*
X4194810Y927100D02*
Y942335D01*
X4187192D01*
X4184653Y939796D01*
Y934717D01*
X4187192Y932178D01*
X4194810D01*
X4189732D02*
X4184653Y927100D01*
X4169418D02*
X4179575D01*
X4169418Y937257D01*
Y939796D01*
X4171957Y942335D01*
X4177036D01*
X4179575Y939796D01*
X4164340D02*
X4161801Y942335D01*
X4156722D01*
X4154183Y939796D01*
Y937257D01*
X4156722Y934717D01*
X4154183Y932178D01*
Y929639D01*
X4156722Y927100D01*
X4161801D01*
X4164340Y929639D01*
Y932178D01*
X4161801Y934717D01*
X4164340Y937257D01*
Y939796D01*
X4161801Y934717D02*
X4156722D01*
X4208780Y966470D02*
Y981705D01*
X4201162D01*
X4198623Y979166D01*
Y974088D01*
X4201162Y971548D01*
X4208780D01*
X4203702D02*
X4198623Y966470D01*
X4183388D02*
X4193545D01*
X4183388Y976627D01*
Y979166D01*
X4185927Y981705D01*
X4191006D01*
X4193545Y979166D01*
X4178310Y981705D02*
X4168153D01*
Y979166D01*
X4178310Y969009D01*
Y966470D01*
X4107180Y1341120D02*
Y1356355D01*
X4099562D01*
X4097023Y1353816D01*
Y1348737D01*
X4099562Y1346198D01*
X4107180D01*
X4102102D02*
X4097023Y1341120D01*
X4081788D02*
X4091945D01*
X4081788Y1351277D01*
Y1353816D01*
X4084327Y1356355D01*
X4089406D01*
X4091945Y1353816D01*
X4066553Y1356355D02*
X4071631Y1353816D01*
X4076710Y1348737D01*
Y1343659D01*
X4074171Y1341120D01*
X4069092D01*
X4066553Y1343659D01*
Y1346198D01*
X4069092Y1348737D01*
X4076710D01*
X4251960Y1513840D02*
Y1529075D01*
X4244343D01*
X4241803Y1526536D01*
Y1521458D01*
X4244343Y1518918D01*
X4251960D01*
X4246882D02*
X4241803Y1513840D01*
X4226568D02*
X4236725D01*
X4226568Y1523997D01*
Y1526536D01*
X4229107Y1529075D01*
X4234186D01*
X4236725Y1526536D01*
X4211333Y1529075D02*
X4221490D01*
Y1521458D01*
X4216411Y1523997D01*
X4213872D01*
X4211333Y1521458D01*
Y1516379D01*
X4213872Y1513840D01*
X4218951D01*
X4221490Y1516379D01*
X4086866Y1480818D02*
Y1465582D01*
X4094484D01*
X4097023Y1468122D01*
Y1473200D01*
X4094484Y1475739D01*
X4086866D01*
X4091945D02*
X4097023Y1480818D01*
X4112258D02*
X4102102D01*
X4112258Y1470661D01*
Y1468122D01*
X4109719Y1465582D01*
X4104641D01*
X4102102Y1468122D01*
X4124954Y1480818D02*
Y1465582D01*
X4117337Y1473200D01*
X4127493D01*
X4042410Y1602740D02*
Y1617975D01*
X4034792D01*
X4032253Y1615436D01*
Y1610358D01*
X4034792Y1607818D01*
X4042410D01*
X4037332D02*
X4032253Y1602740D01*
X4017018D02*
X4027175D01*
X4017018Y1612897D01*
Y1615436D01*
X4019557Y1617975D01*
X4024636D01*
X4027175Y1615436D01*
X4011940D02*
X4009401Y1617975D01*
X4004322D01*
X4001783Y1615436D01*
Y1612897D01*
X4004322Y1610358D01*
X4006862D01*
X4004322D01*
X4001783Y1607818D01*
Y1605279D01*
X4004322Y1602740D01*
X4009401D01*
X4011940Y1605279D01*
X3987800Y1725930D02*
Y1741165D01*
X3980182D01*
X3977643Y1738626D01*
Y1733548D01*
X3980182Y1731008D01*
X3987800D01*
X3982722D02*
X3977643Y1725930D01*
X3962408D02*
X3972565D01*
X3962408Y1736087D01*
Y1738626D01*
X3964948Y1741165D01*
X3970026D01*
X3972565Y1738626D01*
X3947173Y1725930D02*
X3957330D01*
X3947173Y1736087D01*
Y1738626D01*
X3949712Y1741165D01*
X3954791D01*
X3957330Y1738626D01*
X4122420Y1757680D02*
Y1772915D01*
X4114803D01*
X4112263Y1770376D01*
Y1765298D01*
X4114803Y1762758D01*
X4122420D01*
X4117342D02*
X4112263Y1757680D01*
X4097028D02*
X4107185D01*
X4097028Y1767837D01*
Y1770376D01*
X4099567Y1772915D01*
X4104646D01*
X4107185Y1770376D01*
X4091950Y1757680D02*
X4086872D01*
X4089411D01*
Y1772915D01*
X4091950Y1770376D01*
X4152900Y1805940D02*
Y1821175D01*
X4145283D01*
X4142743Y1818636D01*
Y1813557D01*
X4145283Y1811018D01*
X4152900D01*
X4147822D02*
X4142743Y1805940D01*
X4127508D02*
X4137665D01*
X4127508Y1816097D01*
Y1818636D01*
X4130047Y1821175D01*
X4135126D01*
X4137665Y1818636D01*
X4122430D02*
X4119891Y1821175D01*
X4114812D01*
X4112273Y1818636D01*
Y1808479D01*
X4114812Y1805940D01*
X4119891D01*
X4122430Y1808479D01*
Y1818636D01*
X4042410Y1878330D02*
Y1893565D01*
X4034792D01*
X4032253Y1891026D01*
Y1885948D01*
X4034792Y1883408D01*
X4042410D01*
X4037332D02*
X4032253Y1878330D01*
X4027175D02*
X4022097D01*
X4024636D01*
Y1893565D01*
X4027175Y1891026D01*
X4014479Y1880869D02*
X4011940Y1878330D01*
X4006862D01*
X4004322Y1880869D01*
Y1891026D01*
X4006862Y1893565D01*
X4011940D01*
X4014479Y1891026D01*
Y1888487D01*
X4011940Y1885948D01*
X4004322D01*
X3903980Y1793240D02*
Y1808475D01*
X3896363D01*
X3893823Y1805936D01*
Y1800858D01*
X3896363Y1798318D01*
X3903980D01*
X3898902D02*
X3893823Y1793240D01*
X3888745D02*
X3883667D01*
X3886206D01*
Y1808475D01*
X3888745Y1805936D01*
X3876049D02*
X3873510Y1808475D01*
X3868431D01*
X3865892Y1805936D01*
Y1803397D01*
X3868431Y1800858D01*
X3865892Y1798318D01*
Y1795779D01*
X3868431Y1793240D01*
X3873510D01*
X3876049Y1795779D01*
Y1798318D01*
X3873510Y1800858D01*
X3876049Y1803397D01*
Y1805936D01*
X3873510Y1800858D02*
X3868431D01*
X3948433Y1910086D02*
X3963668D01*
Y1917704D01*
X3961128Y1920243D01*
X3956050D01*
X3953511Y1917704D01*
Y1910086D01*
Y1915164D02*
X3948433Y1920243D01*
Y1925321D02*
Y1930400D01*
Y1927860D01*
X3963668D01*
X3961128Y1925321D01*
X3963668Y1938017D02*
Y1948174D01*
X3961128D01*
X3950972Y1938017D01*
X3948433D01*
X3869690Y1794510D02*
Y1809745D01*
X3862072D01*
X3859533Y1807206D01*
Y1802128D01*
X3862072Y1799588D01*
X3869690D01*
X3864612D02*
X3859533Y1794510D01*
X3854455D02*
X3849377D01*
X3851916D01*
Y1809745D01*
X3854455Y1807206D01*
X3831602Y1809745D02*
X3836681Y1807206D01*
X3841759Y1802128D01*
Y1797049D01*
X3839220Y1794510D01*
X3834142D01*
X3831602Y1797049D01*
Y1799588D01*
X3834142Y1802128D01*
X3841759D01*
X3901440Y1997710D02*
Y2012945D01*
X3893823D01*
X3891283Y2010406D01*
Y2005327D01*
X3893823Y2002788D01*
X3901440D01*
X3896362D02*
X3891283Y1997710D01*
X3886205D02*
X3881127D01*
X3883666D01*
Y2012945D01*
X3886205Y2010406D01*
X3863352Y2012945D02*
X3873509D01*
Y2005327D01*
X3868431Y2007867D01*
X3865891D01*
X3863352Y2005327D01*
Y2000249D01*
X3865891Y1997710D01*
X3870970D01*
X3873509Y2000249D01*
X3731260Y1794510D02*
Y1809745D01*
X3723643D01*
X3721103Y1807206D01*
Y1802128D01*
X3723643Y1799588D01*
X3731260D01*
X3726182D02*
X3721103Y1794510D01*
X3716025D02*
X3710947D01*
X3713486D01*
Y1809745D01*
X3716025Y1807206D01*
X3695711Y1794510D02*
Y1809745D01*
X3703329Y1802128D01*
X3693172D01*
X3760470Y1997710D02*
Y2012945D01*
X3752852D01*
X3750313Y2010406D01*
Y2005327D01*
X3752852Y2002788D01*
X3760470D01*
X3755392D02*
X3750313Y1997710D01*
X3745235D02*
X3740157D01*
X3742696D01*
Y2012945D01*
X3745235Y2010406D01*
X3732539D02*
X3730000Y2012945D01*
X3724922D01*
X3722382Y2010406D01*
Y2007867D01*
X3724922Y2005327D01*
X3727461D01*
X3724922D01*
X3722382Y2002788D01*
Y2000249D01*
X3724922Y1997710D01*
X3730000D01*
X3732539Y2000249D01*
X3666490Y1833880D02*
Y1849115D01*
X3658872D01*
X3656333Y1846576D01*
Y1841497D01*
X3658872Y1838958D01*
X3666490D01*
X3661412D02*
X3656333Y1833880D01*
X3651255D02*
X3646176D01*
X3648716D01*
Y1849115D01*
X3651255Y1846576D01*
X3628402Y1833880D02*
X3638559D01*
X3628402Y1844037D01*
Y1846576D01*
X3630941Y1849115D01*
X3636020D01*
X3638559Y1846576D01*
X3620770Y1986280D02*
Y2001515D01*
X3613152D01*
X3610613Y1998976D01*
Y1993898D01*
X3613152Y1991358D01*
X3620770D01*
X3615692D02*
X3610613Y1986280D01*
X3605535D02*
X3600457D01*
X3602996D01*
Y2001515D01*
X3605535Y1998976D01*
X3592839Y1986280D02*
X3587761D01*
X3590300D01*
Y2001515D01*
X3592839Y1998976D01*
X3594100Y1794510D02*
Y1809745D01*
X3586483D01*
X3583943Y1807206D01*
Y1802128D01*
X3586483Y1799588D01*
X3594100D01*
X3589022D02*
X3583943Y1794510D01*
X3578865D02*
X3573787D01*
X3576326D01*
Y1809745D01*
X3578865Y1807206D01*
X3566169D02*
X3563630Y1809745D01*
X3558552D01*
X3556012Y1807206D01*
Y1797049D01*
X3558552Y1794510D01*
X3563630D01*
X3566169Y1797049D01*
Y1807206D01*
X3488944Y1960626D02*
Y1975861D01*
X3481327D01*
X3478787Y1973322D01*
Y1968244D01*
X3481327Y1965704D01*
X3488944D01*
X3483866D02*
X3478787Y1960626D01*
X3473709Y1963165D02*
X3471170Y1960626D01*
X3466091D01*
X3463552Y1963165D01*
Y1973322D01*
X3466091Y1975861D01*
X3471170D01*
X3473709Y1973322D01*
Y1970783D01*
X3471170Y1968244D01*
X3463552D01*
X3365496Y1905002D02*
Y1920237D01*
X3357878D01*
X3355339Y1917698D01*
Y1912620D01*
X3357878Y1910081D01*
X3365496D01*
X3360417D02*
X3355339Y1905002D01*
X3350261Y1917698D02*
X3347722Y1920237D01*
X3342643D01*
X3340104Y1917698D01*
Y1915159D01*
X3342643Y1912620D01*
X3340104Y1910081D01*
Y1907542D01*
X3342643Y1905002D01*
X3347722D01*
X3350261Y1907542D01*
Y1910081D01*
X3347722Y1912620D01*
X3350261Y1915159D01*
Y1917698D01*
X3347722Y1912620D02*
X3342643D01*
X3436620Y1701800D02*
Y1717035D01*
X3429002D01*
X3426463Y1714496D01*
Y1709418D01*
X3429002Y1706878D01*
X3436620D01*
X3431542D02*
X3426463Y1701800D01*
X3421385Y1717035D02*
X3411228D01*
Y1714496D01*
X3421385Y1704339D01*
Y1701800D01*
X3275584Y1772920D02*
Y1788155D01*
X3267967D01*
X3265427Y1785616D01*
Y1780538D01*
X3267967Y1777998D01*
X3275584D01*
X3270506D02*
X3265427Y1772920D01*
X3250192Y1788155D02*
X3255271Y1785616D01*
X3260349Y1780538D01*
Y1775459D01*
X3257810Y1772920D01*
X3252731D01*
X3250192Y1775459D01*
Y1777998D01*
X3252731Y1780538D01*
X3260349D01*
X3393440Y1700530D02*
Y1715765D01*
X3385822D01*
X3383283Y1713226D01*
Y1708147D01*
X3385822Y1705608D01*
X3393440D01*
X3388362D02*
X3383283Y1700530D01*
X3368048Y1715765D02*
X3378205D01*
Y1708147D01*
X3373127Y1710687D01*
X3370587D01*
X3368048Y1708147D01*
Y1703069D01*
X3370587Y1700530D01*
X3375666D01*
X3378205Y1703069D01*
X3186430Y1587500D02*
Y1602735D01*
X3178813D01*
X3176273Y1600196D01*
Y1595117D01*
X3178813Y1592578D01*
X3186430D01*
X3181352D02*
X3176273Y1587500D01*
X3163577D02*
Y1602735D01*
X3171195Y1595117D01*
X3161038D01*
X3276600Y1625600D02*
Y1640835D01*
X3268983D01*
X3266443Y1638296D01*
Y1633217D01*
X3268983Y1630678D01*
X3276600D01*
X3271522D02*
X3266443Y1625600D01*
X3261365Y1638296D02*
X3258826Y1640835D01*
X3253747D01*
X3251208Y1638296D01*
Y1635757D01*
X3253747Y1633217D01*
X3256287D01*
X3253747D01*
X3251208Y1630678D01*
Y1628139D01*
X3253747Y1625600D01*
X3258826D01*
X3261365Y1628139D01*
X3266440Y1206500D02*
Y1221735D01*
X3258823D01*
X3256283Y1219196D01*
Y1214118D01*
X3258823Y1211578D01*
X3266440D01*
X3261362D02*
X3256283Y1206500D01*
X3241048D02*
X3251205D01*
X3241048Y1216657D01*
Y1219196D01*
X3243587Y1221735D01*
X3248666D01*
X3251205Y1219196D01*
X3129280Y1033780D02*
Y1049015D01*
X3121663D01*
X3119123Y1046476D01*
Y1041397D01*
X3121663Y1038858D01*
X3129280D01*
X3124202D02*
X3119123Y1033780D01*
X3114045D02*
X3108967D01*
X3111506D01*
Y1049015D01*
X3114045Y1046476D01*
X3220723Y1196336D02*
X3223263Y1198875D01*
X3228341D01*
X3230880Y1196336D01*
Y1193797D01*
X3228341Y1191257D01*
X3223263D01*
X3220723Y1188718D01*
Y1186179D01*
X3223263Y1183640D01*
X3228341D01*
X3230880Y1186179D01*
X3215645Y1183640D02*
X3210567D01*
X3213106D01*
Y1198875D01*
X3215645Y1196336D01*
M02*
